<svg width="733" height="673" viewBox="0 0 733 673" fill="none" xmlns="http://www.w3.org/2000/svg">
<mask id="mask0_851_2445" style="mask-type:alpha" maskUnits="userSpaceOnUse" x="0" y="0" width="733" height="673">
<rect width="733" height="673" fill="url(#paint0_radial_851_2445)"/>
</mask>
<g mask="url(#mask0_851_2445)">
<rect x="-12" width="85" height="85" fill="#171717"/>
<rect x="-11.5" y="0.5" width="84" height="84" stroke="#4C1D95" stroke-opacity="0.4"/>
<rect x="72" width="85" height="85" fill="#4C1D95" fill-opacity="0.4"/>
<rect x="72.5" y="0.5" width="84" height="84" stroke="#4C1D95" stroke-opacity="0.4"/>
<rect x="156" width="85" height="85" fill="#171717"/>
<rect x="156.5" y="0.5" width="84" height="84" stroke="#4C1D95" stroke-opacity="0.4"/>
<rect x="240" width="85" height="85" fill="#171717"/>
<rect x="240.5" y="0.5" width="84" height="84" stroke="#4C1D95" stroke-opacity="0.4"/>
<rect x="324" width="85" height="85" fill="#171717"/>
<rect x="324.5" y="0.5" width="84" height="84" stroke="#4C1D95" stroke-opacity="0.4"/>
<rect x="408" width="85" height="85" fill="#4C1D95" fill-opacity="0.4"/>
<rect x="408.5" y="0.5" width="84" height="84" stroke="#4C1D95" stroke-opacity="0.4"/>
<rect x="492" width="85" height="85" fill="#171717"/>
<rect x="492.5" y="0.5" width="84" height="84" stroke="#4C1D95" stroke-opacity="0.4"/>
<rect x="576" width="85" height="85" fill="#171717"/>
<rect x="576.5" y="0.5" width="84" height="84" stroke="#4C1D95" stroke-opacity="0.4"/>
<rect x="660" width="85" height="85" fill="#171717"/>
<rect x="660.5" y="0.5" width="84" height="84" stroke="#4C1D95" stroke-opacity="0.4"/>
<rect x="-12" y="84" width="85" height="85" fill="#4C1D95" fill-opacity="0.4"/>
<rect x="-11.5" y="84.5" width="84" height="84" stroke="#4C1D95" stroke-opacity="0.4"/>
<rect x="72" y="84" width="85" height="85" fill="#171717"/>
<rect x="72.5" y="84.5" width="84" height="84" stroke="#4C1D95" stroke-opacity="0.4"/>
<rect x="156" y="84" width="85" height="85" fill="#171717"/>
<rect x="156.5" y="84.5" width="84" height="84" stroke="#4C1D95" stroke-opacity="0.4"/>
<rect x="240" y="84" width="85" height="85" fill="#171717"/>
<rect x="240.5" y="84.5" width="84" height="84" stroke="#4C1D95" stroke-opacity="0.4"/>
<rect x="324" y="84" width="85" height="85" fill="#171717"/>
<rect x="324.5" y="84.5" width="84" height="84" stroke="#4C1D95" stroke-opacity="0.4"/>
<rect x="408" y="84" width="85" height="85" fill="#171717"/>
<rect x="408.5" y="84.5" width="84" height="84" stroke="#4C1D95" stroke-opacity="0.4"/>
<rect x="492" y="84" width="85" height="85" fill="#171717"/>
<rect x="492.5" y="84.5" width="84" height="84" stroke="#4C1D95" stroke-opacity="0.4"/>
<rect x="576" y="84" width="85" height="85" fill="#171717"/>
<rect x="576.5" y="84.5" width="84" height="84" stroke="#4C1D95" stroke-opacity="0.4"/>
<rect x="660" y="84" width="85" height="85" fill="#171717"/>
<rect x="660.5" y="84.5" width="84" height="84" stroke="#4C1D95" stroke-opacity="0.4"/>
<rect x="-12" y="168" width="85" height="85" fill="#171717"/>
<rect x="-11.5" y="168.5" width="84" height="84" stroke="#4C1D95" stroke-opacity="0.4"/>
<rect x="72" y="168" width="85" height="85" fill="#171717"/>
<rect x="72.5" y="168.5" width="84" height="84" stroke="#4C1D95" stroke-opacity="0.4"/>
<rect x="156" y="168" width="85" height="85" fill="#171717"/>
<rect x="156.5" y="168.5" width="84" height="84" stroke="#4C1D95" stroke-opacity="0.4"/>
<rect x="240" y="168" width="85" height="85" fill="#171717"/>
<rect x="240.5" y="168.5" width="84" height="84" stroke="#4C1D95" stroke-opacity="0.4"/>
<rect x="324" y="168" width="85" height="85" fill="#171717"/>
<rect x="324.5" y="168.5" width="84" height="84" stroke="#4C1D95" stroke-opacity="0.4"/>
<rect x="408" y="168" width="85" height="85" fill="#171717"/>
<rect x="408.5" y="168.5" width="84" height="84" stroke="#4C1D95" stroke-opacity="0.4"/>
<rect x="492" y="168" width="85" height="85" fill="#171717"/>
<rect x="492.5" y="168.5" width="84" height="84" stroke="#4C1D95" stroke-opacity="0.4"/>
<rect x="576" y="168" width="85" height="85" fill="#171717"/>
<rect x="576.5" y="168.5" width="84" height="84" stroke="#4C1D95" stroke-opacity="0.4"/>
<rect x="660" y="168" width="85" height="85" fill="#4C1D95" fill-opacity="0.4"/>
<rect x="660.5" y="168.5" width="84" height="84" stroke="#4C1D95" stroke-opacity="0.4"/>
<rect x="-12" y="252" width="85" height="85" fill="#171717"/>
<rect x="-11.5" y="252.5" width="84" height="84" stroke="#4C1D95" stroke-opacity="0.4"/>
<rect x="72" y="252" width="85" height="85" fill="#171717"/>
<rect x="72.5" y="252.5" width="84" height="84" stroke="#4C1D95" stroke-opacity="0.4"/>
<rect x="156" y="252" width="85" height="85" fill="#171717"/>
<rect x="156.5" y="252.5" width="84" height="84" stroke="#4C1D95" stroke-opacity="0.4"/>
<rect x="240" y="252" width="85" height="85" fill="#171717"/>
<rect x="240.5" y="252.5" width="84" height="84" stroke="#4C1D95" stroke-opacity="0.4"/>
<rect x="324" y="252" width="85" height="85" fill="#171717"/>
<rect x="324.5" y="252.5" width="84" height="84" stroke="#4C1D95" stroke-opacity="0.4"/>
<rect x="408" y="252" width="85" height="85" fill="#171717"/>
<rect x="408.5" y="252.5" width="84" height="84" stroke="#4C1D95" stroke-opacity="0.4"/>
<rect x="492" y="252" width="85" height="85" fill="#171717"/>
<rect x="492.5" y="252.5" width="84" height="84" stroke="#4C1D95" stroke-opacity="0.4"/>
<rect x="576" y="252" width="85" height="85" fill="#171717"/>
<rect x="576.5" y="252.5" width="84" height="84" stroke="#4C1D95" stroke-opacity="0.4"/>
<rect x="660" y="252" width="85" height="85" fill="#171717"/>
<rect x="660.5" y="252.5" width="84" height="84" stroke="#4C1D95" stroke-opacity="0.4"/>
<rect x="-12" y="336" width="85" height="85" fill="#171717"/>
<rect x="-11.5" y="336.5" width="84" height="84" stroke="#4C1D95" stroke-opacity="0.4"/>
<rect x="72" y="336" width="85" height="85" fill="#171717"/>
<rect x="72.5" y="336.5" width="84" height="84" stroke="#4C1D95" stroke-opacity="0.4"/>
<rect x="156" y="336" width="85" height="85" fill="#4C1D95" fill-opacity="0.4"/>
<rect x="156.5" y="336.5" width="84" height="84" stroke="#4C1D95" stroke-opacity="0.4"/>
<rect x="240" y="336" width="85" height="85" fill="#171717"/>
<rect x="240.5" y="336.5" width="84" height="84" stroke="#4C1D95" stroke-opacity="0.4"/>
<rect x="324" y="336" width="85" height="85" fill="#171717"/>
<rect x="324.5" y="336.5" width="84" height="84" stroke="#4C1D95" stroke-opacity="0.4"/>
<rect x="408" y="336" width="85" height="85" fill="#171717"/>
<rect x="408.5" y="336.5" width="84" height="84" stroke="#4C1D95" stroke-opacity="0.4"/>
<rect x="492" y="336" width="85" height="85" fill="#171717"/>
<rect x="492.5" y="336.5" width="84" height="84" stroke="#4C1D95" stroke-opacity="0.4"/>
<rect x="576" y="336" width="85" height="85" fill="#4C1D95" fill-opacity="0.4"/>
<rect x="576.5" y="336.5" width="84" height="84" stroke="#4C1D95" stroke-opacity="0.4"/>
<rect x="660" y="336" width="85" height="85" fill="#171717"/>
<rect x="660.5" y="336.5" width="84" height="84" stroke="#4C1D95" stroke-opacity="0.4"/>
<rect x="-12" y="420" width="85" height="85" fill="#171717"/>
<rect x="-11.5" y="420.5" width="84" height="84" stroke="#4C1D95" stroke-opacity="0.4"/>
<rect x="72" y="420" width="85" height="85" fill="#171717"/>
<rect x="72.5" y="420.5" width="84" height="84" stroke="#4C1D95" stroke-opacity="0.4"/>
<rect x="156" y="420" width="85" height="85" fill="#171717"/>
<rect x="156.5" y="420.5" width="84" height="84" stroke="#4C1D95" stroke-opacity="0.4"/>
<rect x="240" y="420" width="85" height="85" fill="#171717"/>
<rect x="240.5" y="420.5" width="84" height="84" stroke="#4C1D95" stroke-opacity="0.4"/>
<rect x="324" y="420" width="85" height="85" fill="#171717"/>
<rect x="324.5" y="420.5" width="84" height="84" stroke="#4C1D95" stroke-opacity="0.4"/>
<rect x="408" y="420" width="85" height="85" fill="#171717"/>
<rect x="408.5" y="420.5" width="84" height="84" stroke="#4C1D95" stroke-opacity="0.4"/>
<rect x="492" y="420" width="85" height="85" fill="#171717"/>
<rect x="492.5" y="420.5" width="84" height="84" stroke="#4C1D95" stroke-opacity="0.4"/>
<rect x="576" y="420" width="85" height="85" fill="#171717"/>
<rect x="576.5" y="420.5" width="84" height="84" stroke="#4C1D95" stroke-opacity="0.4"/>
<rect x="660" y="420" width="85" height="85" fill="#171717"/>
<rect x="660.5" y="420.5" width="84" height="84" stroke="#4C1D95" stroke-opacity="0.4"/>
<rect x="-12" y="504" width="85" height="85" fill="#171717"/>
<rect x="-11.5" y="504.5" width="84" height="84" stroke="#4C1D95" stroke-opacity="0.4"/>
<rect x="72" y="504" width="85" height="85" fill="#171717"/>
<rect x="72.5" y="504.5" width="84" height="84" stroke="#4C1D95" stroke-opacity="0.4"/>
<rect x="156" y="504" width="85" height="85" fill="#171717"/>
<rect x="156.5" y="504.5" width="84" height="84" stroke="#4C1D95" stroke-opacity="0.4"/>
<rect x="240" y="504" width="85" height="85" fill="#171717"/>
<rect x="240.5" y="504.5" width="84" height="84" stroke="#4C1D95" stroke-opacity="0.4"/>
<rect x="324" y="504" width="85" height="85" fill="#171717"/>
<rect x="324.5" y="504.5" width="84" height="84" stroke="#4C1D95" stroke-opacity="0.4"/>
<rect x="408" y="504" width="85" height="85" fill="#171717"/>
<rect x="408.5" y="504.5" width="84" height="84" stroke="#4C1D95" stroke-opacity="0.4"/>
<rect x="492" y="504" width="85" height="85" fill="#171717"/>
<rect x="492.5" y="504.5" width="84" height="84" stroke="#4C1D95" stroke-opacity="0.4"/>
<rect x="576" y="504" width="85" height="85" fill="#171717"/>
<rect x="576.5" y="504.5" width="84" height="84" stroke="#4C1D95" stroke-opacity="0.4"/>
<rect x="660" y="504" width="85" height="85" fill="#171717"/>
<rect x="660.5" y="504.5" width="84" height="84" stroke="#4C1D95" stroke-opacity="0.4"/>
<rect x="-12" y="588" width="85" height="85" fill="#171717"/>
<rect x="-11.5" y="588.5" width="84" height="84" stroke="#4C1D95" stroke-opacity="0.4"/>
<rect x="72" y="588" width="85" height="85" fill="#171717"/>
<rect x="72.5" y="588.5" width="84" height="84" stroke="#4C1D95" stroke-opacity="0.4"/>
<rect x="156" y="588" width="85" height="85" fill="#171717"/>
<rect x="156.5" y="588.5" width="84" height="84" stroke="#4C1D95" stroke-opacity="0.4"/>
<rect x="240" y="588" width="85" height="85" fill="#171717"/>
<rect x="240.5" y="588.5" width="84" height="84" stroke="#4C1D95" stroke-opacity="0.4"/>
<rect x="324" y="588" width="85" height="85" fill="#171717"/>
<rect x="324.5" y="588.5" width="84" height="84" stroke="#4C1D95" stroke-opacity="0.4"/>
<rect x="408" y="588" width="85" height="85" fill="#171717"/>
<rect x="408.5" y="588.5" width="84" height="84" stroke="#4C1D95" stroke-opacity="0.4"/>
<rect x="492" y="588" width="85" height="85" fill="#171717"/>
<rect x="492.5" y="588.5" width="84" height="84" stroke="#4C1D95" stroke-opacity="0.4"/>
<rect x="576" y="588" width="85" height="85" fill="#171717"/>
<rect x="576.5" y="588.5" width="84" height="84" stroke="#4C1D95" stroke-opacity="0.4"/>
<rect x="660" y="588" width="85" height="85" fill="#171717"/>
<rect x="660.5" y="588.5" width="84" height="84" stroke="#4C1D95" stroke-opacity="0.4"/>
</g>
<defs>
<radialGradient id="paint0_radial_851_2445" cx="0" cy="0" r="1" gradientUnits="userSpaceOnUse" gradientTransform="translate(366.5 336.5) rotate(90) scale(336.5 366.5)">
<stop stop-color="#2563EB"/>
<stop offset="1" stop-color="white" stop-opacity="0"/>
</radialGradient>
</defs>
</svg>
